<svg xmlns="http://www.w3.org/2000/svg" viewBox="0 0 256 256" role="img" aria-label="Druid class icon">
  <defs>
    <radialGradient id="bg" cx="35%" cy="25%" r="75%">
      <stop offset="0" stop-color="#bef264"/>
      <stop offset="0.45" stop-color="#16a34a"/>
      <stop offset="1" stop-color="#14532d"/>
    </radialGradient>
    <linearGradient id="leaf" x1="0" x2="1" y1="0" y2="1">
      <stop offset="0" stop-color="#dcfce7"/>
      <stop offset="0.45" stop-color="#22c55e"/>
      <stop offset="1" stop-color="#15803d"/>
    </linearGradient>
    <filter id="shadow" x="-30%" y="-30%" width="160%" height="160%">
      <feDropShadow dx="0" dy="8" stdDeviation="8" flood-color="#000" flood-opacity="0.55"/>
    </filter>
  </defs>
  <circle cx="128" cy="128" r="112" fill="#020617"/>
  <circle cx="128" cy="128" r="101" fill="url(#bg)" stroke="#0f172a" stroke-width="10"/>
  <circle cx="84" cy="76" r="50" fill="#ffffff" opacity="0.14"/>
  <g filter="url(#shadow)">
    <path d="M126 214c-9-48 1-91 33-128" fill="none" stroke="#78350f" stroke-width="13" stroke-linecap="round"/>
    <path d="M123 133C64 124 48 75 66 43c44 4 84 40 71 96-4-2-9-4-14-6z" fill="url(#leaf)" stroke="#052e16" stroke-width="9" stroke-linejoin="round"/>
    <path d="M143 147c54-27 95-6 105 31-33 32-91 33-122-13 5-6 10-12 17-18z" transform="translate(-16 -18)" fill="#86efac" stroke="#052e16" stroke-width="9" stroke-linejoin="round"/>
    <path d="M78 69c28 18 45 39 52 67" fill="none" stroke="#ecfccb" stroke-width="7" stroke-linecap="round" opacity="0.75"/>
    <path d="M136 128c19 10 35 23 48 42" fill="none" stroke="#166534" stroke-width="7" stroke-linecap="round" opacity="0.75"/>
  </g>
</svg>
