<svg width="1200" height="675" viewBox="0 0 1200 675" fill="none" xmlns="http://www.w3.org/2000/svg">
  <defs>
    <radialGradient id="g1" cx="0" cy="0" r="1" gradientUnits="userSpaceOnUse" gradientTransform="translate(870 285) rotate(122) scale(520 620)">
      <stop stop-color="#34D399" stop-opacity="0.65"/>
      <stop offset="0.42" stop-color="#065F46" stop-opacity="0.35"/>
      <stop offset="1" stop-color="#020617" stop-opacity="0"/>
    </radialGradient>
    <linearGradient id="bg" x1="0" y1="0" x2="1200" y2="675" gradientUnits="userSpaceOnUse">
      <stop stop-color="#020617"/>
      <stop offset="0.45" stop-color="#0F172A"/>
      <stop offset="1" stop-color="#022C22"/>
    </linearGradient>
    <linearGradient id="title" x1="95" y1="235" x2="820" y2="235" gradientUnits="userSpaceOnUse">
      <stop stop-color="#ECFDF5"/>
      <stop offset="0.55" stop-color="#A7F3D0"/>
      <stop offset="1" stop-color="#34D399"/>
    </linearGradient>
    <filter id="glow" x="-30%" y="-30%" width="160%" height="160%">
      <feGaussianBlur stdDeviation="18" result="blur"/>
      <feColorMatrix in="blur" type="matrix" values="0 0 0 0 0.20 0 0 0 0 0.83 0 0 0 0 0.60 0 0 0 0.65 0"/>
      <feBlend in="SourceGraphic"/>
    </filter>
  </defs>

  <rect width="1200" height="675" fill="url(#bg)"/>
  <rect width="1200" height="675" fill="url(#g1)"/>

  <g opacity="0.22">
    <path d="M-40 565C180 435 330 515 540 365C760 208 890 145 1240 265" stroke="#34D399" stroke-width="2"/>
    <path d="M-20 610C190 500 390 555 610 405C835 250 980 205 1240 325" stroke="#10B981" stroke-width="1.4"/>
    <path d="M870 0C790 175 840 320 705 470C620 565 490 615 340 690" stroke="#6EE7B7" stroke-width="1.2"/>
  </g>

  <g opacity="0.16">
    <circle cx="1040" cy="115" r="170" stroke="#A7F3D0" stroke-width="2"/>
    <circle cx="1040" cy="115" r="108" stroke="#34D399" stroke-width="2"/>
    <circle cx="1040" cy="115" r="52" stroke="#10B981" stroke-width="2"/>
  </g>

  <g filter="url(#glow)">
    <path d="M886 171C806 228 776 322 812 408C872 356 902 265 886 171Z" fill="#34D399" fill-opacity="0.24"/>
    <path d="M905 181C965 255 968 360 900 438C870 350 875 256 905 181Z" fill="#A7F3D0" fill-opacity="0.22"/>
    <path d="M812 414C884 390 962 391 1034 450C934 496 862 473 812 414Z" fill="#10B981" fill-opacity="0.24"/>
    <path d="M874 457C884 354 919 254 994 166" stroke="#A7F3D0" stroke-width="10" stroke-linecap="round"/>
    <path d="M874 457C840 367 795 296 716 240" stroke="#34D399" stroke-width="8" stroke-linecap="round" opacity="0.75"/>
  </g>

  <rect x="72" y="68" width="196" height="46" rx="23" fill="#064E3B" fill-opacity="0.72" stroke="#34D399" stroke-opacity="0.42"/>
  <text x="96" y="98" fill="#A7F3D0" font-family="Arial, Helvetica, sans-serif" font-size="20" font-weight="800" letter-spacing="3">GUIDE</text>

  <g opacity="0.98">
    <rect x="840" y="66" width="288" height="72" rx="24" fill="#020617" fill-opacity="0.62" stroke="#34D399" stroke-opacity="0.38"/>
    <text x="1100" y="96" text-anchor="end" fill="#ECFDF5" font-family="Arial, Helvetica, sans-serif" font-size="22" font-weight="900">Vegetarox</text>
    <text x="1100" y="121" text-anchor="end" fill="#94A3B8" font-family="Arial, Helvetica, sans-serif" font-size="16" font-weight="700">x.com/Vegetarox</text>
  </g>

  <text x="72" y="240" fill="url(#title)" font-family="Arial Black, Arial, Helvetica, sans-serif" font-size="86" font-weight="900" letter-spacing="-2">DRUID</text>
  <text x="72" y="332" fill="#F8FAFC" font-family="Arial Black, Arial, Helvetica, sans-serif" font-size="76" font-weight="900" letter-spacing="-2">PREPARATION</text>

  <text x="76" y="390" fill="#CBD5E1" font-family="Arial, Helvetica, sans-serif" font-size="26" font-weight="600">Builds • Progression • Update Coverage</text>

  <rect x="72" y="438" width="520" height="76" rx="20" fill="#020617" fill-opacity="0.52" stroke="#34D399" stroke-opacity="0.28"/>
  <text x="100" y="469" fill="#A7F3D0" font-family="Arial, Helvetica, sans-serif" font-size="20" font-weight="800">COMING CLASS HUB</text>
  <text x="100" y="497" fill="#94A3B8" font-family="Arial, Helvetica, sans-serif" font-size="18">Reliable testing notes will be added after release.</text>

  <g opacity="0.95">
    <rect x="72" y="582" width="214" height="34" rx="17" fill="#0F172A" stroke="#334155"/>
    <text x="94" y="605" fill="#94A3B8" font-family="Arial, Helvetica, sans-serif" font-size="16" font-weight="700">Mini Legion Guide</text>
  </g>

  <rect x="0.5" y="0.5" width="1199" height="674" stroke="#34D399" stroke-opacity="0.18"/>
</svg>
